<svg width="1018" height="851" viewBox="0 0 1018 851" fill="none" xmlns="http://www.w3.org/2000/svg">
<rect width="1018" height="851" fill="#2D132C"/>
<g filter="url(#filter0_b)">
<circle cx="509.5" cy="425.5" r="378.5" fill="white"/>
</g>
<circle cx="509" cy="431" r="283" fill="#2D132C"/>
<path d="M673.824 387.686C635.724 450.769 639.128 453.719 601.426 468.632C566.395 474.504 558.275 476.377 521.096 467.556C525.719 433.775 537.482 388.39 589.401 382.422C625.106 378.317 639.128 387.686 673.824 387.686Z" fill="white"/>
<path d="M407.911 488.894C344.856 493.468 340.556 497.751 315.547 483.216C290.538 468.682 284.44 451.341 272.967 432.192C296.669 416.905 333.206 411.261 364.29 427.172C388.649 439.641 398.764 466.082 407.911 488.894Z" fill="white"/>
<ellipse cx="490" cy="210" rx="183" ry="142" fill="white"/>
<g filter="url(#filter1_b)">
<path d="M451.223 547.695L431.096 545.068C429.742 544.891 428.392 545.417 427.514 546.463L421.936 553.109C421.331 553.829 421 554.74 421 555.68V567.929C421 569.062 421.48 570.141 422.321 570.899L431.887 579.53C432.281 579.886 432.743 580.16 433.244 580.335L459.89 589.665C460.916 590.024 461.752 590.786 462.205 591.774L471.705 612.514C471.887 612.911 472.134 613.276 472.434 613.594L487.887 629.955L503.073 645.039L510.704 651.142C512.595 652.655 515.386 652.153 516.632 650.077L519.037 646.069C520.136 644.238 519.603 641.867 517.826 640.683L507.904 634.07C507.672 633.915 507.456 633.737 507.262 633.537L495.51 621.515L488.337 615.191C488.039 614.928 487.781 614.622 487.573 614.283L482.905 606.673L476.814 597.406C476.581 597.052 476.406 596.663 476.295 596.254L474.209 588.55C473.959 587.625 474.049 586.64 474.463 585.776L481.046 572.04C481.164 571.793 481.308 571.558 481.474 571.341L492.173 557.333C492.823 556.481 493.104 555.405 492.954 554.344L491.223 542.107C491.073 541.044 490.501 540.086 489.638 539.449L480.602 532.781C479.915 532.274 479.082 532 478.227 532L467.29 532C466.013 532 464.812 532.61 464.059 533.641L454.971 546.087C454.109 547.268 452.672 547.884 451.223 547.695Z" fill="#FFFCFC"/>
<path d="M451.223 547.695L431.096 545.068C429.742 544.891 428.392 545.417 427.514 546.463L421.936 553.109C421.331 553.829 421 554.74 421 555.68V567.929C421 569.062 421.48 570.141 422.321 570.899L431.887 579.53C432.281 579.886 432.743 580.16 433.244 580.335L459.89 589.665C460.916 590.024 461.752 590.786 462.205 591.774L471.705 612.514C471.887 612.911 472.134 613.276 472.434 613.594L487.887 629.955L503.073 645.039L510.704 651.142C512.595 652.655 515.386 652.153 516.632 650.077L519.037 646.069C520.136 644.238 519.603 641.867 517.826 640.683L507.904 634.07C507.672 633.915 507.456 633.737 507.262 633.537L495.51 621.515L488.337 615.191C488.039 614.928 487.781 614.622 487.573 614.283L482.905 606.673L476.814 597.406C476.581 597.052 476.406 596.663 476.295 596.254L474.209 588.55C473.959 587.625 474.049 586.64 474.463 585.776L481.046 572.04C481.164 571.793 481.308 571.558 481.474 571.341L492.173 557.333C492.823 556.481 493.104 555.405 492.954 554.344L491.223 542.107C491.073 541.044 490.501 540.086 489.638 539.449L480.602 532.781C479.915 532.274 479.082 532 478.227 532L467.29 532C466.013 532 464.812 532.61 464.059 533.641L454.971 546.087C454.109 547.268 452.672 547.884 451.223 547.695Z" stroke="white"/>
</g>
<defs>
<filter id="filter0_b" x="127" y="43" width="765" height="765" filterUnits="userSpaceOnUse" color-interpolation-filters="sRGB">
<feFlood flood-opacity="0" result="BackgroundImageFix"/>
<feGaussianBlur in="BackgroundImage" stdDeviation="2"/>
<feComposite in2="SourceAlpha" operator="in" result="effect1_backgroundBlur"/>
<feBlend mode="normal" in="SourceGraphic" in2="effect1_backgroundBlur" result="shape"/>
</filter>
<filter id="filter1_b" x="416.5" y="527.5" width="107.608" height="129.019" filterUnits="userSpaceOnUse" color-interpolation-filters="sRGB">
<feFlood flood-opacity="0" result="BackgroundImageFix"/>
<feGaussianBlur in="BackgroundImage" stdDeviation="2"/>
<feComposite in2="SourceAlpha" operator="in" result="effect1_backgroundBlur"/>
<feBlend mode="normal" in="SourceGraphic" in2="effect1_backgroundBlur" result="shape"/>
</filter>
</defs>
</svg>
